<?xml version="1.0" standalone="no"?>
<!DOCTYPE svg PUBLIC "-//W3C//DTD SVG 1.1//EN"
 "http://www.w3.org/Graphics/SVG/1.1/DTD/svg11.dtd">
<!-- Created with svg_stack (http://github.com/astraw/svg_stack) -->
<svg xmlns:sodipodi="http://sodipodi.sourceforge.net/DTD/sodipodi-0.dtd" xmlns:xlink="http://www.w3.org/1999/xlink" xmlns="http://www.w3.org/2000/svg" version="1.1" width="363.75" height="360.0">
  <defs/>
  <g id="id0:id0" transform="matrix(1.25068766332,0,0,1.25,0.0,0.0)"><g id="id0:graph0" class="graph" transform="scale(0.224938 0.224938) rotate(0) translate(4 636.175)">
<title>G</title>
<polygon fill="white" stroke="none" points="-4,4 -4,-636.175 1288.98,-636.175 1288.98,4 -4,4"/>
<!-- 0 -->
<g id="id0:node1" class="node"><title>0</title>
<ellipse fill="#0000ff" stroke="black" stroke-width="0" cx="760.377" cy="-326.712" rx="36" ry="36"/>
</g>
<!-- 1 -->
<g id="id0:node2" class="node"><title>1</title>
<ellipse fill="#0000ff" stroke="black" stroke-width="0" cx="667.021" cy="-324.866" rx="36" ry="36"/>
</g>
<!-- 0&#45;&#45;1 -->
<g id="id0:edge1" class="edge"><title>0--1</title>
<path fill="none" stroke="black" d="M724.283,-325.998C717.305,-325.86 709.994,-325.715 703.019,-325.577"/>
</g>
<!-- 2 -->
<g id="id0:node3" class="node"><title>2</title>
<ellipse fill="#0000ff" stroke="black" stroke-width="0" cx="491.416" cy="-249.095" rx="36" ry="36"/>
</g>
<!-- 0&#45;&#45;2 -->
<g id="id0:edge2" class="edge"><title>0--2</title>
<path fill="none" stroke="black" d="M725.766,-316.724C674.264,-301.861 577.992,-274.079 526.321,-259.168"/>
</g>
<!-- 3 -->
<g id="id0:node4" class="node"><title>3</title>
<ellipse fill="#0000ff" stroke="black" stroke-width="0" cx="681.128" cy="-154.129" rx="36" ry="36"/>
</g>
<!-- 0&#45;&#45;3 -->
<g id="id0:edge3" class="edge"><title>0--3</title>
<path fill="none" stroke="black" d="M745.285,-293.844C731.183,-263.135 710.248,-217.544 696.164,-186.874"/>
</g>
<!-- 4 -->
<g id="id0:node5" class="node"><title>4</title>
<ellipse fill="#ff0000" stroke="black" stroke-width="2" cx="977.331" cy="-419.178" rx="36" ry="36"/>
</g>
<!-- 0&#45;&#45;4 -->
<g id="id0:edge4" class="edge"><title>0--4</title>
<path fill="none" stroke="black" d="M793.801,-340.957C834.571,-358.333 903.083,-387.533 943.87,-404.916"/>
</g>
<!-- 5 -->
<g id="id0:node6" class="node"><title>5</title>
<ellipse fill="#0000ff" stroke="black" stroke-width="0" cx="1065.79" cy="-394.447" rx="36" ry="36"/>
</g>
<!-- 0&#45;&#45;5 -->
<g id="id0:edge5" class="edge"><title>0--5</title>
<path fill="none" stroke="black" d="M795.71,-334.548C854.436,-347.572 971.477,-373.53 1030.3,-386.577"/>
</g>
<!-- 6 -->
<g id="id0:node7" class="node"><title>6</title>
<ellipse fill="#0000ff" stroke="black" stroke-width="0" cx="1071.61" cy="-314.377" rx="36" ry="36"/>
</g>
<!-- 0&#45;&#45;6 -->
<g id="id0:edge6" class="edge"><title>0--6</title>
<path fill="none" stroke="black" d="M796.384,-325.285C856.228,-322.913 975.5,-318.186 1035.45,-315.81"/>
</g>
<!-- 7 -->
<g id="id0:node8" class="node"><title>7</title>
<ellipse fill="#0000ff" stroke="black" stroke-width="0" cx="681.865" cy="-234.196" rx="36" ry="36"/>
</g>
<!-- 0&#45;&#45;7 -->
<g id="id0:edge7" class="edge"><title>0--7</title>
<path fill="none" stroke="black" d="M737.034,-299.204C726.999,-287.38 715.294,-273.588 705.255,-261.757"/>
</g>
<!-- 8 -->
<g id="id0:node9" class="node"><title>8</title>
<ellipse fill="#0000ff" stroke="black" stroke-width="0" cx="489.399" cy="-367.88" rx="36" ry="36"/>
</g>
<!-- 0&#45;&#45;8 -->
<g id="id0:edge8" class="edge"><title>0--8</title>
<path fill="none" stroke="black" d="M724.673,-332.136C672.792,-340.018 577.108,-354.555 525.182,-362.444"/>
</g>
<!-- 10 -->
<g id="id0:node11" class="node"><title>10</title>
<ellipse fill="#0000ff" stroke="black" stroke-width="0" cx="985.729" cy="-325.11" rx="36" ry="36"/>
</g>
<!-- 0&#45;&#45;10 -->
<g id="id0:edge9" class="edge"><title>0--10</title>
<path fill="none" stroke="black" d="M796.584,-326.454C838.637,-326.156 907.598,-325.665 949.613,-325.367"/>
</g>
<!-- 11 -->
<g id="id0:node12" class="node"><title>11</title>
<ellipse fill="#0000ff" stroke="black" stroke-width="0" cx="881.642" cy="-548.842" rx="36" ry="36"/>
</g>
<!-- 0&#45;&#45;11 -->
<g id="id0:edge10" class="edge"><title>0--11</title>
<path fill="none" stroke="black" d="M777.752,-358.538C800.804,-400.765 841.264,-474.878 864.3,-517.075"/>
</g>
<!-- 12 -->
<g id="id0:node13" class="node"><title>12</title>
<ellipse fill="#0000ff" stroke="black" stroke-width="0" cx="831.118" cy="-91.8566" rx="36" ry="36"/>
</g>
<!-- 0&#45;&#45;12 -->
<g id="id0:edge11" class="edge"><title>0--12</title>
<path fill="none" stroke="black" d="M770.815,-292.058C784.19,-247.655 807.242,-171.124 820.637,-126.652"/>
</g>
<!-- 13 -->
<g id="id0:node14" class="node"><title>13</title>
<ellipse fill="#0000ff" stroke="black" stroke-width="0" cx="571.424" cy="-292.223" rx="36" ry="36"/>
</g>
<!-- 0&#45;&#45;13 -->
<g id="id0:edge12" class="edge"><title>0--13</title>
<path fill="none" stroke="black" d="M724.837,-320.225C691.162,-314.078 640.854,-304.896 607.126,-298.739"/>
</g>
<!-- 17 -->
<g id="id0:node18" class="node"><title>17</title>
<ellipse fill="#0000ff" stroke="black" stroke-width="0" cx="852.739" cy="-347.12" rx="36" ry="36"/>
</g>
<!-- 0&#45;&#45;17 -->
<g id="id0:edge13" class="edge"><title>0--17</title>
<path fill="none" stroke="black" d="M795.559,-334.485C802.696,-336.063 810.205,-337.722 817.349,-339.3"/>
</g>
<!-- 19 -->
<g id="id0:node20" class="node"><title>19</title>
<ellipse fill="#0000ff" stroke="black" stroke-width="0" cx="569.461" cy="-425.418" rx="36" ry="36"/>
</g>
<!-- 0&#45;&#45;19 -->
<g id="id0:edge14" class="edge"><title>0--19</title>
<path fill="none" stroke="black" d="M727.991,-343.456C692.777,-361.662 636.837,-390.583 601.687,-408.756"/>
</g>
<!-- 21 -->
<g id="id0:node22" class="node"><title>21</title>
<ellipse fill="#0000ff" stroke="black" stroke-width="0" cx="847.107" cy="-218.218" rx="36" ry="36"/>
</g>
<!-- 0&#45;&#45;21 -->
<g id="id0:edge15" class="edge"><title>0--21</title>
<path fill="none" stroke="black" d="M782.938,-298.489C795.687,-282.542 811.579,-262.662 824.358,-246.676"/>
</g>
<!-- 31 -->
<g id="id0:node32" class="node"><title>31</title>
<ellipse fill="#0000ff" stroke="black" stroke-width="0" cx="381.871" cy="-225.833" rx="36" ry="36"/>
</g>
<!-- 0&#45;&#45;31 -->
<g id="id0:edge16" class="edge"><title>0--31</title>
<path fill="none" stroke="black" d="M725.447,-317.402C653.34,-298.184 488.752,-254.319 416.717,-235.12"/>
</g>
<!-- 1&#45;&#45;2 -->
<g id="id0:edge18" class="edge"><title>1--2</title>
<path fill="none" stroke="black" d="M633.578,-310.435C602.331,-296.953 555.942,-276.937 524.735,-263.472"/>
</g>
<!-- 1&#45;&#45;3 -->
<g id="id0:edge19" class="edge"><title>1--3</title>
<path fill="none" stroke="black" d="M670.013,-288.657C672.407,-259.682 675.748,-219.247 678.14,-190.286"/>
</g>
<!-- 1&#45;&#45;7 -->
<g id="id0:edge22" class="edge"><title>1--7</title>
<path fill="none" stroke="black" d="M672.845,-289.291C673.885,-282.94 674.969,-276.322 676.009,-269.966"/>
</g>
<!-- 1&#45;&#45;13 -->
<g id="id0:edge23" class="edge"><title>1--13</title>
<path fill="none" stroke="black" d="M632.779,-313.173C623.992,-310.173 614.54,-306.945 605.749,-303.943"/>
</g>
<!-- 1&#45;&#45;17 -->
<g id="id0:edge17" class="edge"><title>1--17</title>
<path fill="none" stroke="black" d="M702.829,-329.156C735.61,-333.085 783.878,-338.869 816.724,-342.805"/>
</g>
<!-- 1&#45;&#45;19 -->
<g id="id0:edge21" class="edge"><title>1--19</title>
<path fill="none" stroke="black" d="M641.897,-350.76C627.444,-365.657 609.335,-384.321 594.839,-399.261"/>
</g>
<!-- 1&#45;&#45;21 -->
<g id="id0:edge20" class="edge"><title>1--21</title>
<path fill="none" stroke="black" d="M698.39,-306.289C731.443,-286.715 783.181,-256.076 816.098,-236.582"/>
</g>
<!-- 30 -->
<g id="id0:node31" class="node"><title>30</title>
<ellipse fill="#0000ff" stroke="black" stroke-width="0" cx="409.34" cy="-438.341" rx="36" ry="36"/>
</g>
<!-- 1&#45;&#45;30 -->
<g id="id0:edge24" class="edge"><title>1--30</title>
<path fill="none" stroke="black" d="M633.861,-339.468C584.383,-361.257 491.776,-402.038 442.372,-423.794"/>
</g>
<!-- 2&#45;&#45;3 -->
<g id="id0:edge25" class="edge"><title>2--3</title>
<path fill="none" stroke="black" d="M524.029,-232.77C558.883,-215.323 613.811,-187.827 648.624,-170.4"/>
</g>
<!-- 2&#45;&#45;7 -->
<g id="id0:edge27" class="edge"><title>2--7</title>
<path fill="none" stroke="black" d="M527.687,-246.258C561.575,-243.607 611.886,-239.671 645.73,-237.023"/>
</g>
<!-- 2&#45;&#45;8 -->
<g id="id0:edge28" class="edge"><title>2--8</title>
<path fill="none" stroke="black" d="M490.8,-285.38C490.55,-300.117 490.261,-317.103 490.011,-331.818"/>
</g>
<!-- 9 -->
<g id="id0:node10" class="node"><title>9</title>
<ellipse fill="#0000ff" stroke="black" stroke-width="0" cx="367.128" cy="-133.618" rx="36" ry="36"/>
</g>
<!-- 2&#45;&#45;9 -->
<g id="id0:edge29" class="edge"><title>2--9</title>
<path fill="none" stroke="black" d="M464.753,-224.323C443.783,-204.839 414.706,-177.823 393.747,-158.35"/>
</g>
<!-- 2&#45;&#45;13 -->
<g id="id0:edge32" class="edge"><title>2--13</title>
<path fill="none" stroke="black" d="M523.498,-266.388C528.802,-269.247 534.299,-272.211 539.597,-275.066"/>
</g>
<!-- 27 -->
<g id="id0:node28" class="node"><title>27</title>
<ellipse fill="#0000ff" stroke="black" stroke-width="0" cx="274.23" cy="-169.906" rx="36" ry="36"/>
</g>
<!-- 2&#45;&#45;27 -->
<g id="id0:edge30" class="edge"><title>2--27</title>
<path fill="none" stroke="black" d="M457.481,-236.722C416.798,-221.889 349.02,-197.176 308.285,-182.323"/>
</g>
<!-- 28 -->
<g id="id0:node29" class="node"><title>28</title>
<ellipse fill="#0000ff" stroke="black" stroke-width="0" cx="364.134" cy="-305.935" rx="36" ry="36"/>
</g>
<!-- 2&#45;&#45;28 -->
<g id="id0:edge31" class="edge"><title>2--28</title>
<path fill="none" stroke="black" d="M458.307,-263.881C439.45,-272.301 415.907,-282.815 397.078,-291.223"/>
</g>
<!-- 32 -->
<g id="id0:node33" class="node"><title>32</title>
<ellipse fill="#0000ff" stroke="black" stroke-width="0" cx="245.09" cy="-423.297" rx="36" ry="36"/>
</g>
<!-- 2&#45;&#45;32 -->
<g id="id0:edge26" class="edge"><title>2--32</title>
<path fill="none" stroke="black" d="M461.704,-270.108C414.231,-303.681 321.822,-369.033 274.525,-402.481"/>
</g>
<!-- 3&#45;&#45;7 -->
<g id="id0:edge33" class="edge"><title>3--7</title>
<path fill="none" stroke="black" d="M681.462,-190.414C681.485,-192.897 681.508,-195.399 681.531,-197.882"/>
</g>
<!-- 3&#45;&#45;12 -->
<g id="id0:edge34" class="edge"><title>3--12</title>
<path fill="none" stroke="black" d="M714.415,-140.309C739.185,-130.025 772.855,-116.046 797.664,-105.746"/>
</g>
<!-- 3&#45;&#45;13 -->
<g id="id0:edge35" class="edge"><title>3--13</title>
<path fill="none" stroke="black" d="M658.663,-182.408C639.732,-206.238 612.782,-240.162 593.859,-263.982"/>
</g>
<!-- 4&#45;&#45;6 -->
<g id="id0:edge37" class="edge"><title>4--6</title>
<path fill="none" stroke="black" d="M1001.61,-392.189C1015.69,-376.542 1033.35,-356.906 1047.41,-341.274"/>
</g>
<!-- 4&#45;&#45;10 -->
<g id="id0:edge36" class="edge"><title>4--10</title>
<path fill="none" stroke="black" d="M980.554,-383.078C981.193,-375.928 981.863,-368.421 982.501,-361.269"/>
</g>
<!-- 5&#45;&#45;6 -->
<g id="id0:edge40" class="edge"><title>5--6</title>
<path fill="none" stroke="black" d="M1068.43,-358.16C1068.61,-355.678 1068.79,-353.175 1068.97,-350.693"/>
</g>
<!-- 5&#45;&#45;10 -->
<g id="id0:edge39" class="edge"><title>5--10</title>
<path fill="none" stroke="black" d="M1038.24,-370.585C1030.1,-363.534 1021.19,-355.82 1013.06,-348.781"/>
</g>
<!-- 16 -->
<g id="id0:node17" class="node"><title>16</title>
<ellipse fill="#0000ff" stroke="black" stroke-width="0" cx="1248.98" cy="-378.893" rx="36" ry="36"/>
</g>
<!-- 5&#45;&#45;16 -->
<g id="id0:edge38" class="edge"><title>5--16</title>
<path fill="none" stroke="black" d="M1101.98,-391.374C1134.1,-388.647 1180.77,-384.684 1212.86,-381.959"/>
</g>
<!-- 6&#45;&#45;16 -->
<g id="id0:edge41" class="edge"><title>6--16</title>
<path fill="none" stroke="black" d="M1105.81,-326.816C1137.22,-338.24 1183.51,-355.079 1214.89,-366.492"/>
</g>
<!-- 8&#45;&#45;30 -->
<g id="id0:edge43" class="edge"><title>8--30</title>
<path fill="none" stroke="black" d="M462.295,-391.735C453.948,-399.081 444.761,-407.166 436.416,-414.511"/>
</g>
<!-- 8&#45;&#45;32 -->
<g id="id0:edge42" class="edge"><title>8--32</title>
<path fill="none" stroke="black" d="M454.135,-375.879C407.754,-386.4 326.72,-404.781 280.343,-415.301"/>
</g>
<!-- 33 -->
<g id="id0:node34" class="node"><title>33</title>
<ellipse fill="#0000ff" stroke="black" stroke-width="0" cx="280.016" cy="-343.268" rx="36" ry="36"/>
</g>
<!-- 8&#45;&#45;33 -->
<g id="id0:edge44" class="edge"><title>8--33</title>
<path fill="none" stroke="black" d="M453.405,-363.649C414.936,-359.127 354.312,-352.001 315.89,-347.485"/>
</g>
<!-- 9&#45;&#45;33 -->
<g id="id0:edge45" class="edge"><title>9--33</title>
<path fill="none" stroke="black" d="M353.132,-167.302C336.828,-206.541 310.061,-270.96 293.833,-310.014"/>
</g>
<!-- 13&#45;&#45;33 -->
<g id="id0:edge46" class="edge"><title>13--33</title>
<path fill="none" stroke="black" d="M535.692,-298.482C479.611,-308.305 371.564,-327.232 315.584,-337.037"/>
</g>
<!-- 14 -->
<g id="id0:node15" class="node"><title>14</title>
<ellipse fill="#0000ff" stroke="black" stroke-width="0" cx="54.0851" cy="-460.173" rx="36" ry="36"/>
</g>
<!-- 14&#45;&#45;32 -->
<g id="id0:edge47" class="edge"><title>14--32</title>
<path fill="none" stroke="black" d="M89.5641,-453.324C123.764,-446.721 175.233,-436.784 209.478,-430.173"/>
</g>
<!-- 14&#45;&#45;33 -->
<g id="id0:edge48" class="edge"><title>14--33</title>
<path fill="none" stroke="black" d="M86.4555,-443.424C129.405,-421.2 204.786,-382.195 247.705,-359.986"/>
</g>
<!-- 15 -->
<g id="id0:node16" class="node"><title>15</title>
<ellipse fill="#0000ff" stroke="black" stroke-width="0" cx="292.608" cy="-596.175" rx="36" ry="36"/>
</g>
<!-- 15&#45;&#45;32 -->
<g id="id0:edge49" class="edge"><title>15--32</title>
<path fill="none" stroke="black" d="M282.992,-561.191C274.748,-531.197 262.932,-488.208 254.692,-458.23"/>
</g>
<!-- 15&#45;&#45;33 -->
<g id="id0:edge50" class="edge"><title>15--33</title>
<path fill="none" stroke="black" d="M290.817,-560.208C288.427,-512.205 284.218,-427.668 281.821,-379.52"/>
</g>
<!-- 18 -->
<g id="id0:node19" class="node"><title>18</title>
<ellipse fill="#0000ff" stroke="black" stroke-width="0" cx="132.526" cy="-540.2" rx="36" ry="36"/>
</g>
<!-- 18&#45;&#45;32 -->
<g id="id0:edge51" class="edge"><title>18--32</title>
<path fill="none" stroke="black" d="M157.507,-514.255C176.032,-495.017 201.189,-468.89 219.789,-449.573"/>
</g>
<!-- 18&#45;&#45;33 -->
<g id="id0:edge52" class="edge"><title>18--33</title>
<path fill="none" stroke="black" d="M154.288,-511.142C182.254,-473.802 230.512,-409.367 258.404,-372.124"/>
</g>
<!-- 19&#45;&#45;33 -->
<g id="id0:edge53" class="edge"><title>19--33</title>
<path fill="none" stroke="black" d="M534.547,-415.508C478.914,-399.719 370.764,-369.024 315.053,-353.212"/>
</g>
<!-- 20 -->
<g id="id0:node21" class="node"><title>20</title>
<ellipse fill="#0000ff" stroke="black" stroke-width="0" cx="212.579" cy="-594.71" rx="36" ry="36"/>
</g>
<!-- 20&#45;&#45;32 -->
<g id="id0:edge54" class="edge"><title>20--32</title>
<path fill="none" stroke="black" d="M219.315,-559.193C224.895,-529.775 232.785,-488.175 238.362,-458.769"/>
</g>
<!-- 20&#45;&#45;33 -->
<g id="id0:edge55" class="edge"><title>20--33</title>
<path fill="none" stroke="black" d="M221.955,-559.748C234.803,-511.844 257.747,-426.297 270.61,-378.337"/>
</g>
<!-- 22 -->
<g id="id0:node23" class="node"><title>22</title>
<ellipse fill="#ff0000" stroke="black" stroke-width="2" cx="36" cy="-380.122" rx="36" ry="36"/>
</g>
<!-- 22&#45;&#45;32 -->
<g id="id0:edge56" class="edge"><title>22--32</title>
<path fill="none" stroke="black" d="M71.4693,-387.446C110.035,-395.41 171.3,-408.06 209.797,-416.009"/>
</g>
<!-- 22&#45;&#45;33 -->
<g id="id0:edge57" class="edge"><title>22--33</title>
<path fill="none" stroke="black" d="M71.7433,-374.724C117.943,-367.746 197.93,-355.665 244.177,-348.681"/>
</g>
<!-- 23 -->
<g id="id0:node24" class="node"><title>23</title>
<ellipse fill="#0000ff" stroke="black" stroke-width="0" cx="158.528" cy="-244.114" rx="36" ry="36"/>
</g>
<!-- 25 -->
<g id="id0:node26" class="node"><title>25</title>
<ellipse fill="#0000ff" stroke="black" stroke-width="0" cx="159.063" cy="-119.222" rx="36" ry="36"/>
</g>
<!-- 23&#45;&#45;25 -->
<g id="id0:edge59" class="edge"><title>23--25</title>
<path fill="none" stroke="black" d="M158.682,-207.99C158.753,-191.421 158.837,-171.825 158.908,-155.265"/>
</g>
<!-- 23&#45;&#45;27 -->
<g id="id0:edge60" class="edge"><title>23--27</title>
<path fill="none" stroke="black" d="M188.927,-224.617C205.799,-213.795 226.728,-200.372 243.632,-189.531"/>
</g>
<!-- 29 -->
<g id="id0:node30" class="node"><title>29</title>
<ellipse fill="#0000ff" stroke="black" stroke-width="0" cx="78.4855" cy="-300.07" rx="36" ry="36"/>
</g>
<!-- 23&#45;&#45;29 -->
<g id="id0:edge61" class="edge"><title>23--29</title>
<path fill="none" stroke="black" d="M128.723,-264.95C121.967,-269.673 114.795,-274.687 108.049,-279.403"/>
</g>
<!-- 23&#45;&#45;32 -->
<g id="id0:edge58" class="edge"><title>23--32</title>
<path fill="none" stroke="black" d="M174.203,-276.563C189.843,-308.936 213.735,-358.393 229.385,-390.787"/>
</g>
<!-- 23&#45;&#45;33 -->
<g id="id0:edge62" class="edge"><title>23--33</title>
<path fill="none" stroke="black" d="M186.705,-267.111C206.331,-283.129 232.398,-304.404 251.991,-320.395"/>
</g>
<!-- 24 -->
<g id="id0:node25" class="node"><title>24</title>
<ellipse fill="#0000ff" stroke="black" stroke-width="0" cx="233.222" cy="-36" rx="36" ry="36"/>
</g>
<!-- 24&#45;&#45;25 -->
<g id="id0:edge63" class="edge"><title>24--25</title>
<path fill="none" stroke="black" d="M208.939,-63.2501C200.66,-72.5415 191.41,-82.9216 183.147,-92.1953"/>
</g>
<!-- 24&#45;&#45;27 -->
<g id="id0:edge64" class="edge"><title>24--27</title>
<path fill="none" stroke="black" d="M243.782,-70.4841C249.858,-90.3218 257.469,-115.177 263.562,-135.073"/>
</g>
<!-- 24&#45;&#45;31 -->
<g id="id0:edge65" class="edge"><title>24--31</title>
<path fill="none" stroke="black" d="M255.476,-64.42C283.499,-100.207 331.369,-161.34 359.464,-197.219"/>
</g>
<!-- 25&#45;&#45;31 -->
<g id="id0:edge66" class="edge"><title>25--31</title>
<path fill="none" stroke="black" d="M191.939,-134.953C234.185,-155.168 307.087,-190.05 349.223,-210.212"/>
</g>
<!-- 26 -->
<g id="id0:node27" class="node"><title>26</title>
<ellipse fill="#0000ff" stroke="black" stroke-width="0" cx="47.3204" cy="-178.84" rx="36" ry="36"/>
</g>
<!-- 26&#45;&#45;29 -->
<g id="id0:edge68" class="edge"><title>26--29</title>
<path fill="none" stroke="black" d="M56.3346,-213.904C60.4693,-229.988 65.3592,-249.01 69.4915,-265.084"/>
</g>
<!-- 26&#45;&#45;33 -->
<g id="id0:edge67" class="edge"><title>26--33</title>
<path fill="none" stroke="black" d="M76.7914,-199.665C121.429,-231.207 205.705,-290.758 250.417,-322.353"/>
</g>
<!-- 27&#45;&#45;33 -->
<g id="id0:edge69" class="edge"><title>27--33</title>
<path fill="none" stroke="black" d="M275.443,-206.248C276.434,-235.935 277.827,-277.678 278.814,-307.271"/>
</g>
<!-- 28&#45;&#45;31 -->
<g id="id0:edge71" class="edge"><title>28--31</title>
<path fill="none" stroke="black" d="M371.965,-270.568C372.652,-267.466 373.347,-264.327 374.034,-261.226"/>
</g>
<!-- 28&#45;&#45;33 -->
<g id="id0:edge70" class="edge"><title>28--33</title>
<path fill="none" stroke="black" d="M330.888,-320.69C325.01,-323.298 318.891,-326.014 313.02,-328.62"/>
</g>
<!-- 29&#45;&#45;32 -->
<g id="id0:edge72" class="edge"><title>29--32</title>
<path fill="none" stroke="black" d="M107.506,-321.534C137.992,-344.083 185.658,-379.338 216.123,-401.872"/>
</g>
<!-- 29&#45;&#45;33 -->
<g id="id0:edge73" class="edge"><title>29--33</title>
<path fill="none" stroke="black" d="M114.051,-307.693C150.889,-315.589 208.1,-327.853 244.806,-335.72"/>
</g>
<!-- 30&#45;&#45;32 -->
<g id="id0:edge75" class="edge"><title>30--32</title>
<path fill="none" stroke="black" d="M373.295,-435.039C345.909,-432.531 308.416,-429.097 281.051,-426.591"/>
</g>
<!-- 30&#45;&#45;33 -->
<g id="id0:edge74" class="edge"><title>30--33</title>
<path fill="none" stroke="black" d="M380.317,-417.004C359.167,-401.456 330.62,-380.47 309.389,-364.862"/>
</g>
<!-- 31&#45;&#45;32 -->
<g id="id0:edge76" class="edge"><title>31--32</title>
<path fill="none" stroke="black" d="M361.097,-255.824C335.239,-293.154 291.352,-356.512 265.612,-393.671"/>
</g>
<!-- 31&#45;&#45;33 -->
<g id="id0:edge77" class="edge"><title>31--33</title>
<path fill="none" stroke="black" d="M358.247,-253.07C341.91,-271.907 320.25,-296.879 303.864,-315.772"/>
</g>
<!-- 32&#45;&#45;33 -->
<g id="id0:edge78" class="edge"><title>32--33</title>
<path fill="none" stroke="black" d="M259.497,-390.284C261.489,-385.72 263.536,-381.031 265.529,-376.463"/>
</g>
</g>
</g>
  <g id="id1:id1" transform="matrix(1.25068766332,0,0,1.25,0.0,180.0)"><g id="id1:graph0" class="graph" transform="scale(0.224938 0.224938) rotate(0) translate(4 636.175)">
<title>G</title>
<polygon fill="white" stroke="none" points="-4,4 -4,-636.175 1288.98,-636.175 1288.98,4 -4,4"/>
<!-- 0 -->
<g id="id1:node1" class="node"><title>0</title>
<ellipse fill="#0000ff" stroke="black" stroke-width="0" cx="760.377" cy="-326.712" rx="36" ry="36"/>
</g>
<!-- 1 -->
<g id="id1:node2" class="node"><title>1</title>
<ellipse fill="#0000ff" stroke="black" stroke-width="0" cx="667.021" cy="-324.866" rx="36" ry="36"/>
</g>
<!-- 0&#45;&#45;1 -->
<g id="id1:edge1" class="edge"><title>0--1</title>
<path fill="none" stroke="black" d="M724.283,-325.998C717.305,-325.86 709.994,-325.715 703.019,-325.577"/>
</g>
<!-- 2 -->
<g id="id1:node3" class="node"><title>2</title>
<ellipse fill="#0000ff" stroke="black" stroke-width="0" cx="491.416" cy="-249.095" rx="36" ry="36"/>
</g>
<!-- 0&#45;&#45;2 -->
<g id="id1:edge2" class="edge"><title>0--2</title>
<path fill="none" stroke="black" d="M725.766,-316.724C674.264,-301.861 577.992,-274.079 526.321,-259.168"/>
</g>
<!-- 3 -->
<g id="id1:node4" class="node"><title>3</title>
<ellipse fill="#0000ff" stroke="black" stroke-width="0" cx="681.128" cy="-154.129" rx="36" ry="36"/>
</g>
<!-- 0&#45;&#45;3 -->
<g id="id1:edge3" class="edge"><title>0--3</title>
<path fill="none" stroke="black" d="M745.285,-293.844C731.183,-263.135 710.248,-217.544 696.164,-186.874"/>
</g>
<!-- 4 -->
<g id="id1:node5" class="node"><title>4</title>
<ellipse fill="#ff0000" stroke="black" stroke-width="2" cx="977.331" cy="-419.178" rx="36" ry="36"/>
</g>
<!-- 0&#45;&#45;4 -->
<g id="id1:edge4" class="edge"><title>0--4</title>
<path fill="none" stroke="black" d="M793.801,-340.957C834.571,-358.333 903.083,-387.533 943.87,-404.916"/>
</g>
<!-- 5 -->
<g id="id1:node6" class="node"><title>5</title>
<ellipse fill="#0000ff" stroke="black" stroke-width="0" cx="1065.79" cy="-394.447" rx="36" ry="36"/>
</g>
<!-- 0&#45;&#45;5 -->
<g id="id1:edge5" class="edge"><title>0--5</title>
<path fill="none" stroke="black" d="M795.71,-334.548C854.436,-347.572 971.477,-373.53 1030.3,-386.577"/>
</g>
<!-- 6 -->
<g id="id1:node7" class="node"><title>6</title>
<ellipse fill="#0000ff" stroke="black" stroke-width="0" cx="1071.61" cy="-314.377" rx="36" ry="36"/>
</g>
<!-- 0&#45;&#45;6 -->
<g id="id1:edge6" class="edge"><title>0--6</title>
<path fill="none" stroke="black" d="M796.384,-325.285C856.228,-322.913 975.5,-318.186 1035.45,-315.81"/>
</g>
<!-- 7 -->
<g id="id1:node8" class="node"><title>7</title>
<ellipse fill="#0000ff" stroke="black" stroke-width="0" cx="681.865" cy="-234.196" rx="36" ry="36"/>
</g>
<!-- 0&#45;&#45;7 -->
<g id="id1:edge7" class="edge"><title>0--7</title>
<path fill="none" stroke="black" d="M737.034,-299.204C726.999,-287.38 715.294,-273.588 705.255,-261.757"/>
</g>
<!-- 8 -->
<g id="id1:node9" class="node"><title>8</title>
<ellipse fill="#0000ff" stroke="black" stroke-width="0" cx="489.399" cy="-367.88" rx="36" ry="36"/>
</g>
<!-- 0&#45;&#45;8 -->
<g id="id1:edge8" class="edge"><title>0--8</title>
<path fill="none" stroke="black" d="M724.673,-332.136C672.792,-340.018 577.108,-354.555 525.182,-362.444"/>
</g>
<!-- 10 -->
<g id="id1:node11" class="node"><title>10</title>
<ellipse fill="#0000ff" stroke="black" stroke-width="0" cx="985.729" cy="-325.11" rx="36" ry="36"/>
</g>
<!-- 0&#45;&#45;10 -->
<g id="id1:edge9" class="edge"><title>0--10</title>
<path fill="none" stroke="black" d="M796.584,-326.454C838.637,-326.156 907.598,-325.665 949.613,-325.367"/>
</g>
<!-- 11 -->
<g id="id1:node12" class="node"><title>11</title>
<ellipse fill="#0000ff" stroke="black" stroke-width="0" cx="881.642" cy="-548.842" rx="36" ry="36"/>
</g>
<!-- 0&#45;&#45;11 -->
<g id="id1:edge10" class="edge"><title>0--11</title>
<path fill="none" stroke="black" d="M777.752,-358.538C800.804,-400.765 841.264,-474.878 864.3,-517.075"/>
</g>
<!-- 12 -->
<g id="id1:node13" class="node"><title>12</title>
<ellipse fill="#0000ff" stroke="black" stroke-width="0" cx="831.118" cy="-91.8566" rx="36" ry="36"/>
</g>
<!-- 0&#45;&#45;12 -->
<g id="id1:edge11" class="edge"><title>0--12</title>
<path fill="none" stroke="black" d="M770.815,-292.058C784.19,-247.655 807.242,-171.124 820.637,-126.652"/>
</g>
<!-- 13 -->
<g id="id1:node14" class="node"><title>13</title>
<ellipse fill="#0000ff" stroke="black" stroke-width="0" cx="571.424" cy="-292.223" rx="36" ry="36"/>
</g>
<!-- 0&#45;&#45;13 -->
<g id="id1:edge12" class="edge"><title>0--13</title>
<path fill="none" stroke="black" d="M724.837,-320.225C691.162,-314.078 640.854,-304.896 607.126,-298.739"/>
</g>
<!-- 17 -->
<g id="id1:node18" class="node"><title>17</title>
<ellipse fill="#0000ff" stroke="black" stroke-width="0" cx="852.739" cy="-347.12" rx="36" ry="36"/>
</g>
<!-- 0&#45;&#45;17 -->
<g id="id1:edge13" class="edge"><title>0--17</title>
<path fill="none" stroke="black" d="M795.559,-334.485C802.696,-336.063 810.205,-337.722 817.349,-339.3"/>
</g>
<!-- 19 -->
<g id="id1:node20" class="node"><title>19</title>
<ellipse fill="#0000ff" stroke="black" stroke-width="0" cx="569.461" cy="-425.418" rx="36" ry="36"/>
</g>
<!-- 0&#45;&#45;19 -->
<g id="id1:edge14" class="edge"><title>0--19</title>
<path fill="none" stroke="black" d="M727.991,-343.456C692.777,-361.662 636.837,-390.583 601.687,-408.756"/>
</g>
<!-- 21 -->
<g id="id1:node22" class="node"><title>21</title>
<ellipse fill="#0000ff" stroke="black" stroke-width="0" cx="847.107" cy="-218.218" rx="36" ry="36"/>
</g>
<!-- 0&#45;&#45;21 -->
<g id="id1:edge15" class="edge"><title>0--21</title>
<path fill="none" stroke="black" d="M782.938,-298.489C795.687,-282.542 811.579,-262.662 824.358,-246.676"/>
</g>
<!-- 31 -->
<g id="id1:node32" class="node"><title>31</title>
<ellipse fill="#0000ff" stroke="black" stroke-width="0" cx="381.871" cy="-225.833" rx="36" ry="36"/>
</g>
<!-- 0&#45;&#45;31 -->
<g id="id1:edge16" class="edge"><title>0--31</title>
<path fill="none" stroke="black" d="M725.447,-317.402C653.34,-298.184 488.752,-254.319 416.717,-235.12"/>
</g>
<!-- 1&#45;&#45;2 -->
<g id="id1:edge18" class="edge"><title>1--2</title>
<path fill="none" stroke="black" d="M633.578,-310.435C602.331,-296.953 555.942,-276.937 524.735,-263.472"/>
</g>
<!-- 1&#45;&#45;3 -->
<g id="id1:edge19" class="edge"><title>1--3</title>
<path fill="none" stroke="black" d="M670.013,-288.657C672.407,-259.682 675.748,-219.247 678.14,-190.286"/>
</g>
<!-- 1&#45;&#45;7 -->
<g id="id1:edge22" class="edge"><title>1--7</title>
<path fill="none" stroke="black" d="M672.845,-289.291C673.885,-282.94 674.969,-276.322 676.009,-269.966"/>
</g>
<!-- 1&#45;&#45;13 -->
<g id="id1:edge23" class="edge"><title>1--13</title>
<path fill="none" stroke="black" d="M632.779,-313.173C623.992,-310.173 614.54,-306.945 605.749,-303.943"/>
</g>
<!-- 1&#45;&#45;17 -->
<g id="id1:edge17" class="edge"><title>1--17</title>
<path fill="none" stroke="black" d="M702.829,-329.156C735.61,-333.085 783.878,-338.869 816.724,-342.805"/>
</g>
<!-- 1&#45;&#45;19 -->
<g id="id1:edge21" class="edge"><title>1--19</title>
<path fill="none" stroke="black" d="M641.897,-350.76C627.444,-365.657 609.335,-384.321 594.839,-399.261"/>
</g>
<!-- 1&#45;&#45;21 -->
<g id="id1:edge20" class="edge"><title>1--21</title>
<path fill="none" stroke="black" d="M698.39,-306.289C731.443,-286.715 783.181,-256.076 816.098,-236.582"/>
</g>
<!-- 30 -->
<g id="id1:node31" class="node"><title>30</title>
<ellipse fill="#0000ff" stroke="black" stroke-width="0" cx="409.34" cy="-438.341" rx="36" ry="36"/>
</g>
<!-- 1&#45;&#45;30 -->
<g id="id1:edge24" class="edge"><title>1--30</title>
<path fill="none" stroke="black" d="M633.861,-339.468C584.383,-361.257 491.776,-402.038 442.372,-423.794"/>
</g>
<!-- 2&#45;&#45;3 -->
<g id="id1:edge25" class="edge"><title>2--3</title>
<path fill="none" stroke="black" d="M524.029,-232.77C558.883,-215.323 613.811,-187.827 648.624,-170.4"/>
</g>
<!-- 2&#45;&#45;7 -->
<g id="id1:edge27" class="edge"><title>2--7</title>
<path fill="none" stroke="black" d="M527.687,-246.258C561.575,-243.607 611.886,-239.671 645.73,-237.023"/>
</g>
<!-- 2&#45;&#45;8 -->
<g id="id1:edge28" class="edge"><title>2--8</title>
<path fill="none" stroke="black" d="M490.8,-285.38C490.55,-300.117 490.261,-317.103 490.011,-331.818"/>
</g>
<!-- 9 -->
<g id="id1:node10" class="node"><title>9</title>
<ellipse fill="#0000ff" stroke="black" stroke-width="0" cx="367.128" cy="-133.618" rx="36" ry="36"/>
</g>
<!-- 2&#45;&#45;9 -->
<g id="id1:edge29" class="edge"><title>2--9</title>
<path fill="none" stroke="black" d="M464.753,-224.323C443.783,-204.839 414.706,-177.823 393.747,-158.35"/>
</g>
<!-- 2&#45;&#45;13 -->
<g id="id1:edge32" class="edge"><title>2--13</title>
<path fill="none" stroke="black" d="M523.498,-266.388C528.802,-269.247 534.299,-272.211 539.597,-275.066"/>
</g>
<!-- 27 -->
<g id="id1:node28" class="node"><title>27</title>
<ellipse fill="#0000ff" stroke="black" stroke-width="0" cx="274.23" cy="-169.906" rx="36" ry="36"/>
</g>
<!-- 2&#45;&#45;27 -->
<g id="id1:edge30" class="edge"><title>2--27</title>
<path fill="none" stroke="black" d="M457.481,-236.722C416.798,-221.889 349.02,-197.176 308.285,-182.323"/>
</g>
<!-- 28 -->
<g id="id1:node29" class="node"><title>28</title>
<ellipse fill="#0000ff" stroke="black" stroke-width="0" cx="364.134" cy="-305.935" rx="36" ry="36"/>
</g>
<!-- 2&#45;&#45;28 -->
<g id="id1:edge31" class="edge"><title>2--28</title>
<path fill="none" stroke="black" d="M458.307,-263.881C439.45,-272.301 415.907,-282.815 397.078,-291.223"/>
</g>
<!-- 32 -->
<g id="id1:node33" class="node"><title>32</title>
<ellipse fill="#0000ff" stroke="black" stroke-width="0" cx="245.09" cy="-423.297" rx="36" ry="36"/>
</g>
<!-- 2&#45;&#45;32 -->
<g id="id1:edge26" class="edge"><title>2--32</title>
<path fill="none" stroke="black" d="M461.704,-270.108C414.231,-303.681 321.822,-369.033 274.525,-402.481"/>
</g>
<!-- 3&#45;&#45;7 -->
<g id="id1:edge33" class="edge"><title>3--7</title>
<path fill="none" stroke="black" d="M681.462,-190.414C681.485,-192.897 681.508,-195.399 681.531,-197.882"/>
</g>
<!-- 3&#45;&#45;12 -->
<g id="id1:edge34" class="edge"><title>3--12</title>
<path fill="none" stroke="black" d="M714.415,-140.309C739.185,-130.025 772.855,-116.046 797.664,-105.746"/>
</g>
<!-- 3&#45;&#45;13 -->
<g id="id1:edge35" class="edge"><title>3--13</title>
<path fill="none" stroke="black" d="M658.663,-182.408C639.732,-206.238 612.782,-240.162 593.859,-263.982"/>
</g>
<!-- 4&#45;&#45;6 -->
<g id="id1:edge37" class="edge"><title>4--6</title>
<path fill="none" stroke="black" d="M1001.61,-392.189C1015.69,-376.542 1033.35,-356.906 1047.41,-341.274"/>
</g>
<!-- 4&#45;&#45;10 -->
<g id="id1:edge36" class="edge"><title>4--10</title>
<path fill="none" stroke="black" d="M980.554,-383.078C981.193,-375.928 981.863,-368.421 982.501,-361.269"/>
</g>
<!-- 5&#45;&#45;6 -->
<g id="id1:edge40" class="edge"><title>5--6</title>
<path fill="none" stroke="black" d="M1068.43,-358.16C1068.61,-355.678 1068.79,-353.175 1068.97,-350.693"/>
</g>
<!-- 5&#45;&#45;10 -->
<g id="id1:edge39" class="edge"><title>5--10</title>
<path fill="none" stroke="black" d="M1038.24,-370.585C1030.1,-363.534 1021.19,-355.82 1013.06,-348.781"/>
</g>
<!-- 16 -->
<g id="id1:node17" class="node"><title>16</title>
<ellipse fill="#0000ff" stroke="black" stroke-width="0" cx="1248.98" cy="-378.893" rx="36" ry="36"/>
</g>
<!-- 5&#45;&#45;16 -->
<g id="id1:edge38" class="edge"><title>5--16</title>
<path fill="none" stroke="black" d="M1101.98,-391.374C1134.1,-388.647 1180.77,-384.684 1212.86,-381.959"/>
</g>
<!-- 6&#45;&#45;16 -->
<g id="id1:edge41" class="edge"><title>6--16</title>
<path fill="none" stroke="black" d="M1105.81,-326.816C1137.22,-338.24 1183.51,-355.079 1214.89,-366.492"/>
</g>
<!-- 8&#45;&#45;30 -->
<g id="id1:edge43" class="edge"><title>8--30</title>
<path fill="none" stroke="black" d="M462.295,-391.735C453.948,-399.081 444.761,-407.166 436.416,-414.511"/>
</g>
<!-- 8&#45;&#45;32 -->
<g id="id1:edge42" class="edge"><title>8--32</title>
<path fill="none" stroke="black" d="M454.135,-375.879C407.754,-386.4 326.72,-404.781 280.343,-415.301"/>
</g>
<!-- 33 -->
<g id="id1:node34" class="node"><title>33</title>
<ellipse fill="#0000ff" stroke="black" stroke-width="0" cx="280.016" cy="-343.268" rx="36" ry="36"/>
</g>
<!-- 8&#45;&#45;33 -->
<g id="id1:edge44" class="edge"><title>8--33</title>
<path fill="none" stroke="black" d="M453.405,-363.649C414.936,-359.127 354.312,-352.001 315.89,-347.485"/>
</g>
<!-- 9&#45;&#45;33 -->
<g id="id1:edge45" class="edge"><title>9--33</title>
<path fill="none" stroke="black" d="M353.132,-167.302C336.828,-206.541 310.061,-270.96 293.833,-310.014"/>
</g>
<!-- 13&#45;&#45;33 -->
<g id="id1:edge46" class="edge"><title>13--33</title>
<path fill="none" stroke="black" d="M535.692,-298.482C479.611,-308.305 371.564,-327.232 315.584,-337.037"/>
</g>
<!-- 14 -->
<g id="id1:node15" class="node"><title>14</title>
<ellipse fill="#0000ff" stroke="black" stroke-width="0" cx="54.0851" cy="-460.173" rx="36" ry="36"/>
</g>
<!-- 14&#45;&#45;32 -->
<g id="id1:edge47" class="edge"><title>14--32</title>
<path fill="none" stroke="black" d="M89.5641,-453.324C123.764,-446.721 175.233,-436.784 209.478,-430.173"/>
</g>
<!-- 14&#45;&#45;33 -->
<g id="id1:edge48" class="edge"><title>14--33</title>
<path fill="none" stroke="black" d="M86.4555,-443.424C129.405,-421.2 204.786,-382.195 247.705,-359.986"/>
</g>
<!-- 15 -->
<g id="id1:node16" class="node"><title>15</title>
<ellipse fill="#0000ff" stroke="black" stroke-width="0" cx="292.608" cy="-596.175" rx="36" ry="36"/>
</g>
<!-- 15&#45;&#45;32 -->
<g id="id1:edge49" class="edge"><title>15--32</title>
<path fill="none" stroke="black" d="M282.992,-561.191C274.748,-531.197 262.932,-488.208 254.692,-458.23"/>
</g>
<!-- 15&#45;&#45;33 -->
<g id="id1:edge50" class="edge"><title>15--33</title>
<path fill="none" stroke="black" d="M290.817,-560.208C288.427,-512.205 284.218,-427.668 281.821,-379.52"/>
</g>
<!-- 18 -->
<g id="id1:node19" class="node"><title>18</title>
<ellipse fill="#0000ff" stroke="black" stroke-width="0" cx="132.526" cy="-540.2" rx="36" ry="36"/>
</g>
<!-- 18&#45;&#45;32 -->
<g id="id1:edge51" class="edge"><title>18--32</title>
<path fill="none" stroke="black" d="M157.507,-514.255C176.032,-495.017 201.189,-468.89 219.789,-449.573"/>
</g>
<!-- 18&#45;&#45;33 -->
<g id="id1:edge52" class="edge"><title>18--33</title>
<path fill="none" stroke="black" d="M154.288,-511.142C182.254,-473.802 230.512,-409.367 258.404,-372.124"/>
</g>
<!-- 19&#45;&#45;33 -->
<g id="id1:edge53" class="edge"><title>19--33</title>
<path fill="none" stroke="black" d="M534.547,-415.508C478.914,-399.719 370.764,-369.024 315.053,-353.212"/>
</g>
<!-- 20 -->
<g id="id1:node21" class="node"><title>20</title>
<ellipse fill="#0000ff" stroke="black" stroke-width="0" cx="212.579" cy="-594.71" rx="36" ry="36"/>
</g>
<!-- 20&#45;&#45;32 -->
<g id="id1:edge54" class="edge"><title>20--32</title>
<path fill="none" stroke="black" d="M219.315,-559.193C224.895,-529.775 232.785,-488.175 238.362,-458.769"/>
</g>
<!-- 20&#45;&#45;33 -->
<g id="id1:edge55" class="edge"><title>20--33</title>
<path fill="none" stroke="black" d="M221.955,-559.748C234.803,-511.844 257.747,-426.297 270.61,-378.337"/>
</g>
<!-- 22 -->
<g id="id1:node23" class="node"><title>22</title>
<ellipse fill="#ff0000" stroke="black" stroke-width="2" cx="36" cy="-380.122" rx="36" ry="36"/>
</g>
<!-- 22&#45;&#45;32 -->
<g id="id1:edge56" class="edge"><title>22--32</title>
<path fill="none" stroke="black" d="M71.4693,-387.446C110.035,-395.41 171.3,-408.06 209.797,-416.009"/>
</g>
<!-- 22&#45;&#45;33 -->
<g id="id1:edge57" class="edge"><title>22--33</title>
<path fill="none" stroke="black" d="M71.7433,-374.724C117.943,-367.746 197.93,-355.665 244.177,-348.681"/>
</g>
<!-- 23 -->
<g id="id1:node24" class="node"><title>23</title>
<ellipse fill="#0000ff" stroke="black" stroke-width="0" cx="158.528" cy="-244.114" rx="36" ry="36"/>
</g>
<!-- 25 -->
<g id="id1:node26" class="node"><title>25</title>
<ellipse fill="#0000ff" stroke="black" stroke-width="0" cx="159.063" cy="-119.222" rx="36" ry="36"/>
</g>
<!-- 23&#45;&#45;25 -->
<g id="id1:edge59" class="edge"><title>23--25</title>
<path fill="none" stroke="black" d="M158.682,-207.99C158.753,-191.421 158.837,-171.825 158.908,-155.265"/>
</g>
<!-- 23&#45;&#45;27 -->
<g id="id1:edge60" class="edge"><title>23--27</title>
<path fill="none" stroke="black" d="M188.927,-224.617C205.799,-213.795 226.728,-200.372 243.632,-189.531"/>
</g>
<!-- 29 -->
<g id="id1:node30" class="node"><title>29</title>
<ellipse fill="#0000ff" stroke="black" stroke-width="0" cx="78.4855" cy="-300.07" rx="36" ry="36"/>
</g>
<!-- 23&#45;&#45;29 -->
<g id="id1:edge61" class="edge"><title>23--29</title>
<path fill="none" stroke="black" d="M128.723,-264.95C121.967,-269.673 114.795,-274.687 108.049,-279.403"/>
</g>
<!-- 23&#45;&#45;32 -->
<g id="id1:edge58" class="edge"><title>23--32</title>
<path fill="none" stroke="black" d="M174.203,-276.563C189.843,-308.936 213.735,-358.393 229.385,-390.787"/>
</g>
<!-- 23&#45;&#45;33 -->
<g id="id1:edge62" class="edge"><title>23--33</title>
<path fill="none" stroke="black" d="M186.705,-267.111C206.331,-283.129 232.398,-304.404 251.991,-320.395"/>
</g>
<!-- 24 -->
<g id="id1:node25" class="node"><title>24</title>
<ellipse fill="#0000ff" stroke="black" stroke-width="0" cx="233.222" cy="-36" rx="36" ry="36"/>
</g>
<!-- 24&#45;&#45;25 -->
<g id="id1:edge63" class="edge"><title>24--25</title>
<path fill="none" stroke="black" d="M208.939,-63.2501C200.66,-72.5415 191.41,-82.9216 183.147,-92.1953"/>
</g>
<!-- 24&#45;&#45;27 -->
<g id="id1:edge64" class="edge"><title>24--27</title>
<path fill="none" stroke="black" d="M243.782,-70.4841C249.858,-90.3218 257.469,-115.177 263.562,-135.073"/>
</g>
<!-- 24&#45;&#45;31 -->
<g id="id1:edge65" class="edge"><title>24--31</title>
<path fill="none" stroke="black" d="M255.476,-64.42C283.499,-100.207 331.369,-161.34 359.464,-197.219"/>
</g>
<!-- 25&#45;&#45;31 -->
<g id="id1:edge66" class="edge"><title>25--31</title>
<path fill="none" stroke="black" d="M191.939,-134.953C234.185,-155.168 307.087,-190.05 349.223,-210.212"/>
</g>
<!-- 26 -->
<g id="id1:node27" class="node"><title>26</title>
<ellipse fill="#0000ff" stroke="black" stroke-width="0" cx="47.3204" cy="-178.84" rx="36" ry="36"/>
</g>
<!-- 26&#45;&#45;29 -->
<g id="id1:edge68" class="edge"><title>26--29</title>
<path fill="none" stroke="black" d="M56.3346,-213.904C60.4693,-229.988 65.3592,-249.01 69.4915,-265.084"/>
</g>
<!-- 26&#45;&#45;33 -->
<g id="id1:edge67" class="edge"><title>26--33</title>
<path fill="none" stroke="black" d="M76.7914,-199.665C121.429,-231.207 205.705,-290.758 250.417,-322.353"/>
</g>
<!-- 27&#45;&#45;33 -->
<g id="id1:edge69" class="edge"><title>27--33</title>
<path fill="none" stroke="black" d="M275.443,-206.248C276.434,-235.935 277.827,-277.678 278.814,-307.271"/>
</g>
<!-- 28&#45;&#45;31 -->
<g id="id1:edge71" class="edge"><title>28--31</title>
<path fill="none" stroke="black" d="M371.965,-270.568C372.652,-267.466 373.347,-264.327 374.034,-261.226"/>
</g>
<!-- 28&#45;&#45;33 -->
<g id="id1:edge70" class="edge"><title>28--33</title>
<path fill="none" stroke="black" d="M330.888,-320.69C325.01,-323.298 318.891,-326.014 313.02,-328.62"/>
</g>
<!-- 29&#45;&#45;32 -->
<g id="id1:edge72" class="edge"><title>29--32</title>
<path fill="none" stroke="black" d="M107.506,-321.534C137.992,-344.083 185.658,-379.338 216.123,-401.872"/>
</g>
<!-- 29&#45;&#45;33 -->
<g id="id1:edge73" class="edge"><title>29--33</title>
<path fill="none" stroke="black" d="M114.051,-307.693C150.889,-315.589 208.1,-327.853 244.806,-335.72"/>
</g>
<!-- 30&#45;&#45;32 -->
<g id="id1:edge75" class="edge"><title>30--32</title>
<path fill="none" stroke="black" d="M373.295,-435.039C345.909,-432.531 308.416,-429.097 281.051,-426.591"/>
</g>
<!-- 30&#45;&#45;33 -->
<g id="id1:edge74" class="edge"><title>30--33</title>
<path fill="none" stroke="black" d="M380.317,-417.004C359.167,-401.456 330.62,-380.47 309.389,-364.862"/>
</g>
<!-- 31&#45;&#45;32 -->
<g id="id1:edge76" class="edge"><title>31--32</title>
<path fill="none" stroke="black" d="M361.097,-255.824C335.239,-293.154 291.352,-356.512 265.612,-393.671"/>
</g>
<!-- 31&#45;&#45;33 -->
<g id="id1:edge77" class="edge"><title>31--33</title>
<path fill="none" stroke="black" d="M358.247,-253.07C341.91,-271.907 320.25,-296.879 303.864,-315.772"/>
</g>
<!-- 32&#45;&#45;33 -->
<g id="id1:edge78" class="edge"><title>32--33</title>
<path fill="none" stroke="black" d="M259.497,-390.284C261.489,-385.72 263.536,-381.031 265.529,-376.463"/>
</g>
</g>
</g>
</svg>
